# xmcd
#
# Track frame offsets:
#	150
#	5500
#	32875
#	50090
#	69506
#	89217
#	108673
#	124997
#	144048
#	167763
#	186872
#	208208
#	230113
#	254671
#	276758
#	290513
#
# Disc length: 4199 seconds
#
# Revision: 1
# Processed by: cddbd v1.5.2PL0 Copyright (c) Steve Scherf et al.
# Submitted via: EasyCDDAExtractor 7.1.0.1
#
DISCID=02106510
DTITLE=Unheilig - Moderne Zeiten
DYEAR=2006
DGENRE=EBM
TTITLE0=Das Uhrwerk
TTITLE1=Luftschiff
TTITLE2=Ich Will Alles
TTITLE3=Goldene Zeiten 
TTITLE4=Helden
TTITLE5=Astronaut
TTITLE6=Phonix 
TTITLE7=Lass Uns Liebe Machen
TTITLE8=Horizont
TTITLE9=Sonnenaufgang 
TTITLE10=Gelobtes Land
TTITLE11=Menschenherz 
TTITLE12=Sonnentag
TTITLE13=Tag Fur Sieger 
TTITLE14=Mein Stern
TTITLE15=Moderne Zeiten
EXTD=
EXTT0=
EXTT1=
EXTT2=
EXTT3=
EXTT4=
EXTT5=
EXTT6=
EXTT7=
EXTT8=
EXTT9=
EXTT10=
EXTT11=
EXTT12=
EXTT13=
EXTT14=
EXTT15=
PLAYORDER=
